{
.appVersion = "3258";
.formatVersion = 3;
DisplayStrings = (
"0"
);
axes = (
{
name = STROK;
tag = STROK;
}
);
date = "2024-05-10 14:30:25 +0000";
familyName = "New Font";
fontMaster = (
{
axesValues = (
0
);
id = m01;
metricValues = (
{
over = 16;
pos = 800;
},
{
over = 16;
pos = 700;
},
{
over = 16;
pos = 500;
},
{
over = -16;
},
{
over = -16;
pos = -200;
},
{
}
);
name = Regular;
},
{
axesValues = (
100
);
id = m002;
metricValues = (
{
over = 16;
pos = 800;
},
{
over = 16;
pos = 700;
},
{
over = 16;
pos = 500;
},
{
over = -16;
},
{
over = -16;
pos = -200;
},
{
}
);
name = BLEED;
userData = {
GSCornerRadius = 30;
};
}
);
glyphs = (
{
glyphname = a;
lastChange = "2024-05-10 16:44:45 +0000";
layers = (
{
layerId = m01;
shapes = (
{
attr = {
fill = 1;
strokeHeight = 100;
strokePos = 1;
strokeWidth = 100;
};
closed = 1;
nodes = (
);
},
{
closed = 1;
nodes = (
);
},
{
closed = 1;
nodes = (
(260,403,o),
(387,377,o),
(396,318,c),
(472,344,l),
(379,496,o),
(175,429,o),
(150,370,c)
);
},
{
closed = 1;
nodes = (
(472,13,l),
(396,13,l),
(439,72,l),
(532,64,l)
);
},
{
closed = 1;
nodes = (
(396,64,l),
(150,-89,o),
(99,89,o),
(150,191,c),
(209,199,l),
(209,72,o),
(235,64,o),
(396,98,c)
);
},
{
closed = 1;
nodes = (
(472,72,l),
(396,13,l),
(396,318,l),
(472,344,l)
);
},
{
closed = 1;
nodes = (
(413,217,l),
(142,174,l),
(158,225,l),
(396,268,l)
);
}
);
width = 600;
},
{
layerId = m002;
shapes = (
{
attr = {
fill = 1;
strokePos = 1;
strokeWidth = 60;
};
closed = 1;
nodes = (
);
},
{
attr = {
fill = 1;
strokeHeight = 50;
strokePos = 1;
strokeWidth = 50;
};
closed = 1;
nodes = (
);
},
{
closed = 1;
nodes = (
);
},
{
closed = 1;
nodes = (
);
},
{
attr = {
fill = 1;
strokeWidth = 40;
};
closed = 1;
nodes = (
);
},
{
closed = 1;
nodes = (
(263,522,o),
(394,489,o),
(403,412,c),
(481,446,l),
(386,644,o),
(176,557,o),
(150,480,c)
);
},
{
closed = 1;
nodes = (
(481,14,l),
(403,14,l),
(447,90,l),
(543,80,l)
);
},
{
closed = 1;
nodes = (
(403,80,l),
(150,-120,o),
(98,113,o),
(150,246,c),
(211,256,l),
(211,90,o),
(238,80,o),
(403,124,c)
);
},
{
closed = 1;
nodes = (
(481,90,l),
(403,14,l),
(403,412,l),
(481,446,l)
);
},
{
closed = 1;
nodes = (
(421,279,l),
(142,223,l),
(159,291,l),
(403,347,l)
);
}
);
width = 600;
}
);
unicode = 97;
},
{
glyphname = b;
lastChange = "2024-05-10 16:45:10 +0000";
layers = (
{
layerId = m01;
shapes = (
{
closed = 1;
nodes = (
(261,700,l),
(166,700,l),
(88,648,l),
(177,648,l)
);
},
{
closed = 1;
nodes = (
(177,648,l),
(174,60,l),
(261,95,l),
(261,700,l)
);
},
{
closed = 1;
nodes = (
(305,396,o),
(443,363,o),
(453,303,c),
(539,328,l),
(434,492,o),
(226,424,o),
(201,354,c)
);
},
{
closed = 1;
nodes = (
(431,64,o),
(296,30,o),
(254,102,c),
(174,67,l),
(305,-71,o),
(521,40,o),
(539,108,c)
);
},
{
closed = 1;
nodes = (
(453,303,l),
(539,328,l),
(539,108,l),
(453,77,l)
);
}
);
width = 600;
},
{
layerId = m002;
shapes = (
{
closed = 1;
nodes = (
(261,800,l),
(166,800,l),
(88,741,l),
(177,741,l)
);
},
{
closed = 1;
nodes = (
(177,741,l),
(174,77,l),
(261,117,l),
(261,800,l)
);
},
{
closed = 1;
nodes = (
(305,457,o),
(443,419,o),
(453,352,c),
(539,380,l),
(434,565,o),
(226,488,o),
(201,409,c)
);
},
{
closed = 1;
nodes = (
(431,82,o),
(296,43,o),
(254,124,c),
(174,85,l),
(305,-71,o),
(521,54,o),
(539,131,c)
);
},
{
closed = 1;
nodes = (
(453,352,l),
(539,380,l),
(539,131,l),
(453,96,l)
);
}
);
width = 600;
}
);
unicode = 98;
},
{
glyphname = c;
lastChange = "2024-05-10 16:45:27 +0000";
layers = (
{
layerId = m01;
shapes = (
{
closed = 1;
nodes = (
(221,386,o),
(365,375,o),
(382,326,c),
(456,359,l),
(327,497,o),
(144,386,o),
(128,319,c)
);
},
{
closed = 1;
nodes = (
(353,28,o),
(217,45,o),
(192,103,c),
(128,69,l),
(261,-64,o),
(431,36,o),
(447,110,c)
);
},
{
closed = 1;
nodes = (
(128,319,l),
(158,339,l),
(192,351,l),
(192,103,l),
(128,69,l)
);
}
);
width = 600;
},
{
layerId = m002;
shapes = (
{
closed = 1;
nodes = (
(216,465,o),
(351,452,o),
(367,392,c),
(437,432,l),
(315,600,o),
(143,465,o),
(128,384,c)
);
},
{
closed = 1;
nodes = (
(340,28,o),
(212,49,o),
(188,120,c),
(128,79,l),
(253,-84,o),
(413,38,o),
(428,128,c)
);
},
{
closed = 1;
nodes = (
(128,384,l),
(156,407,l),
(188,422,l),
(188,120,l),
(128,79,l)
);
}
);
width = 600;
}
);
unicode = 99;
},
{
glyphname = d;
lastChange = "2024-05-10 16:45:40 +0000";
layers = (
{
layerId = m01;
shapes = (
{
closed = 1;
nodes = (
(562,648,l),
(484,700,l),
(389,700,l),
(473,648,l)
);
},
{
closed = 1;
nodes = (
(389,95,l),
(476,60,l),
(473,648,l),
(389,700,l)
);
},
{
closed = 1;
nodes = (
(424,424,o),
(216,492,o),
(111,328,c),
(197,303,l),
(207,363,o),
(345,396,o),
(449,354,c)
);
},
{
closed = 1;
nodes = (
(129,40,o),
(345,-71,o),
(476,67,c),
(396,102,l),
(354,30,o),
(219,64,o),
(111,108,c)
);
},
{
closed = 1;
nodes = (
(111,108,l),
(111,328,l),
(197,303,l),
(197,77,l)
);
}
);
width = 600;
},
{
layerId = m002;
shapes = (
{
closed = 1;
nodes = (
(540,745,l),
(466,804,l),
(375,804,l),
(455,745,l)
);
},
{
closed = 1;
nodes = (
(375,117,l),
(458,78,l),
(455,745,l),
(375,804,l)
);
},
{
closed = 1;
nodes = (
(409,491,o),
(211,568,o),
(111,382,c),
(193,354,l),
(202,422,o),
(334,459,o),
(432,412,c)
);
},
{
closed = 1;
nodes = (
(128,55,o),
(334,-71,o),
(458,86,c),
(382,125,l),
(342,44,o),
(214,82,o),
(111,132,c)
);
},
{
closed = 1;
nodes = (
(111,132,l),
(111,382,l),
(193,354,l),
(193,97,l)
);
}
);
width = 600;
}
);
unicode = 100;
},
{
glyphname = e;
lastChange = "2024-05-10 16:45:56 +0000";
layers = (
{
layerId = m01;
shapes = (
{
closed = 1;
nodes = (
(377,46,o),
(212,29,o),
(198,90,c),
(116,64,l),
(212,-77,o),
(476,37,o),
(494,107,c)
);
},
{
closed = 1;
nodes = (
(198,363,l),
(457,521,o),
(521,358,o),
(433,248,c),
(386,248,l),
(408,396,o),
(369,360,o),
(198,335,c)
);
},
{
closed = 1;
nodes = (
(108,344,l),
(198,397,l),
(198,90,l),
(116,64,l)
);
},
{
closed = 1;
nodes = (
(385,209,l),
(198,209,l),
(198,248,l),
(433,248,l)
);
}
);
width = 600;
},
{
layerId = m002;
shapes = (
{
closed = 1;
nodes = (
);
},
{
closed = 1;
nodes = (
(377,78,o),
(212,57,o),
(198,134,c),
(116,101,l),
(212,-77,o),
(476,67,o),
(494,156,c)
);
},
{
closed = 1;
nodes = (
(198,479,l),
(457,679,o),
(521,473,o),
(433,334,c),
(386,334,l),
(408,521,o),
(369,475,o),
(198,444,c)
);
},
{
closed = 1;
nodes = (
(108,455,l),
(198,522,l),
(198,134,l),
(116,101,l)
);
},
{
closed = 1;
nodes = (
(385,285,l),
(198,285,l),
(198,334,l),
(433,334,l)
);
}
);
width = 600;
}
);
unicode = 101;
},
{
glyphname = f;
lastChange = "2024-05-10 16:48:11 +0000";
layers = (
{
layerId = m01;
shapes = (
{
closed = 1;
nodes = (
);
},
{
attr = {
strokeWidth = 0.75;
};
closed = 0;
nodes = (
(134,273,l)
);
},
{
closed = 1;
nodes = (
(257,679,l),
(257,0,l),
(343,1,l),
(343,765,l)
);
},
{
closed = 1;
nodes = (
(257,428,l),
(214,428,o),
(179,370,o),
(153,273,c),
(170,350,o),
(180,486,o),
(257,486,c)
);
},
{
closed = 1;
nodes = (
(278,465,o),
(236,428,o),
(282,428,c),
(428,437,l),
(463,486,l),
(291,486,l)
);
},
{
attr = {
strokeWidth = 0.75;
};
closed = 0;
nodes = (
(282,428,l)
);
},
{
closed = 1;
nodes = (
(315,719,o),
(385,754,o),
(463,707,c),
(514,750,l),
(371,857,o),
(274,697,o),
(257,679,c)
);
},
{
attr = {
strokeWidth = 0.75;
};
closed = 0;
nodes = (
(428,437,l),
(463,486,l),
(291,486,l),
(281,428,l)
);
}
);
width = 600;
},
{
layerId = m002;
shapes = (
{
closed = 1;
nodes = (
);
},
{
attr = {
strokeWidth = 0.75;
};
closed = 0;
nodes = (
(134,273,l)
);
},
{
closed = 1;
nodes = (
(257,679,l),
(257,0,l),
(343,1,l),
(343,765,l)
);
},
{
closed = 1;
nodes = (
(257,428,l),
(214,428,o),
(179,370,o),
(153,273,c),
(170,350,o),
(180,486,o),
(257,486,c)
);
},
{
closed = 1;
nodes = (
(278,465,o),
(236,428,o),
(282,428,c),
(428,437,l),
(463,486,l),
(291,486,l)
);
},
{
attr = {
strokeWidth = 0.75;
};
closed = 0;
nodes = (
(282,428,l)
);
},
{
closed = 1;
nodes = (
(315,719,o),
(385,754,o),
(463,707,c),
(514,750,l),
(371,857,o),
(274,697,o),
(257,679,c)
);
},
{
attr = {
strokeWidth = 0.75;
};
closed = 0;
nodes = (
(428,437,l),
(463,486,l),
(291,486,l),
(281,428,l)
);
}
);
width = 600;
}
);
unicode = 102;
},
{
glyphname = g;
lastChange = "2024-05-10 16:46:45 +0000";
layers = (
{
layerId = m01;
shapes = (
{
closed = 1;
nodes = (
(405,384,l),
(404,-162,l),
(491,-109,l),
(492,446,l)
);
},
{
closed = 1;
nodes = (
(351,-170,o),
(231,-171,o),
(205,-117,c),
(132,-131,l),
(272,-262,o),
(439,-179,o),
(448,-117,c)
);
},
{
closed = 1;
nodes = (
(396,48,o),
(166,-95,o),
(150,110,c),
(230,133,l),
(226,24,o),
(284,20,o),
(404,64,c)
);
},
{
closed = 1;
nodes = (
(174,401,o),
(290,482,o),
(405,384,c),
(404,305,l),
(370,357,o),
(316,413,o),
(226,364,cs),
(207,353,o),
(165,330,o),
(150,322,c)
);
},
{
closed = 1;
nodes = (
(150,322,l),
(150,110,l),
(230,133,l),
(226,364,l)
);
}
);
width = 600;
},
{
layerId = m002;
shapes = (
{
closed = 1;
nodes = (
(405,493,l),
(404,-201,l),
(491,-134,l),
(492,572,l)
);
},
{
closed = 1;
nodes = (
(351,-211,o),
(231,-212,o),
(205,-144,c),
(132,-161,l),
(272,-328,o),
(439,-223,o),
(448,-144,c)
);
},
{
closed = 1;
nodes = (
(396,66,o),
(166,-116,o),
(150,145,c),
(230,174,l),
(226,36,o),
(284,30,o),
(404,86,c)
);
},
{
closed = 1;
nodes = (
(174,515,o),
(290,618,o),
(405,493,c),
(404,393,l),
(370,459,o),
(316,530,o),
(226,468,cs),
(207,454,o),
(165,424,o),
(150,414,c)
);
},
{
closed = 1;
nodes = (
(150,414,l),
(150,145,l),
(230,174,l),
(226,468,l)
);
}
);
width = 600;
}
);
unicode = 103;
},
{
glyphname = h;
lastChange = "2024-05-10 16:46:57 +0000";
layers = (
{
layerId = m01;
shapes = (
{
closed = 1;
nodes = (
(218,699,l),
(95,700,l),
(44,637,l),
(140,637,l)
);
},
{
closed = 1;
nodes = (
(140,637,l),
(130,2,l),
(227,2,l),
(218,699,l)
);
},
{
closed = 1;
nodes = (
(410,298,l),
(410,2,l),
(497,2,l),
(497,333,l)
);
},
{
closed = 1;
nodes = (
(223,385,l),
(383,457,o),
(497,426,o),
(497,333,c),
(410,298,l),
(410,381,o),
(398,377,o),
(223,341,c)
);
}
);
width = 600;
},
{
layerId = m002;
shapes = (
{
closed = 1;
nodes = (
(218,799,l),
(95,800,l),
(44,728,l),
(140,728,l)
);
},
{
closed = 1;
nodes = (
(140,728,l),
(130,2,l),
(227,2,l),
(218,799,l)
);
},
{
closed = 1;
nodes = (
(410,340,l),
(410,2,l),
(497,2,l),
(497,380,l)
);
},
{
closed = 1;
nodes = (
(223,440,l),
(429,545,o),
(497,530,o),
(497,380,c),
(410,340,l),
(410,410,o),
(363,423,o),
(223,390,c)
);
}
);
width = 600;
}
);
unicode = 104;
},
{
glyphname = i;
lastChange = "2024-05-10 16:47:10 +0000";
layers = (
{
layerId = m01;
shapes = (
{
closed = 1;
nodes = (
(253,428,l),
(253,1,l),
(353,57,l),
(353,500,l)
);
},
{
closed = 1;
nodes = (
(353,670,l),
(253,609,l),
(253,520,l),
(353,579,l)
);
}
);
width = 600;
},
{
layerId = m002;
shapes = (
{
closed = 1;
nodes = (
(253,428,l),
(253,1,l),
(353,57,l),
(353,500,l)
);
},
{
closed = 1;
nodes = (
(353,783,l),
(253,681,l),
(253,533,l),
(353,631,l)
);
}
);
width = 600;
}
);
unicode = 105;
},
{
glyphname = j;
lastChange = "2024-05-10 16:47:20 +0000";
layers = (
{
layerId = m01;
shapes = (
{
closed = 1;
nodes = (
(285,396,l),
(294,-139,l),
(379,-75,l),
(379,500,l)
);
},
{
closed = 1;
nodes = (
(374,703,l),
(282,616,l),
(285,500,l),
(374,599,l)
);
},
{
closed = 1;
nodes = (
(258,-147,o),
(124,-129,o),
(97,-58,c),
(26,-102,l),
(169,-272,o),
(347,-166,o),
(356,-85,c)
);
}
);
width = 600;
},
{
layerId = m002;
shapes = (
{
closed = 1;
nodes = (
(285,396,l),
(294,-139,l),
(379,-75,l),
(379,533,l)
);
},
{
closed = 1;
nodes = (
(374,800,l),
(282,686,l),
(285,533,l),
(374,663,l)
);
},
{
closed = 1;
nodes = (
(258,-147,o),
(124,-129,o),
(97,-58,c),
(26,-102,l),
(169,-272,o),
(347,-166,o),
(356,-85,c)
);
}
);
width = 600;
}
);
unicode = 106;
},
{
glyphname = k;
lastChange = "2024-05-10 16:48:33 +0000";
layers = (
{
layerId = m01;
shapes = (
{
closed = 1;
nodes = (
(249,693,l),
(128,693,l),
(64,633,l),
(171,633,l)
);
},
{
closed = 1;
nodes = (
(162,633,l),
(162,4,l),
(258,4,l),
(249,693,l)
);
},
{
closed = 1;
nodes = (
(352,279,l),
(378,271,o),
(412,245,o),
(438,220,c),
(456,185,o),
(456,167,o),
(472,133,c),
(490,116,o),
(516,91,o),
(568,73,c),
(458,-1,l),
(423,33,o),
(396,82,o),
(387,107,c),
(352,167,o),
(361,220,o),
(327,245,c),
(300,263,o),
(240,271,o),
(209,271,c)
);
},
{
attr = {
strokeWidth = 1;
};
closed = 1;
nodes = (
(381,270,o),
(412,245,o),
(438,220,c),
(456,185,o),
(456,167,o),
(472,133,c),
(490,116,o),
(516,91,o),
(568,73,c),
(458,-1,l),
(423,33,o),
(396,82,o),
(387,107,c),
(352,167,o),
(361,220,o),
(327,245,c),
(300,263,o),
(242,271,o),
(209,271,c),
(355,278,l)
);
},
{
closed = 1;
nodes = (
(304,276,l),
(341,285,o),
(369,279,o),
(396,305,c),
(412,332,o),
(412,348,o),
(430,366,c),
(447,383,o),
(459,383,o),
(512,399,c),
(412,461,l),
(378,435,o),
(352,408,o),
(343,392,c),
(309,339,o),
(318,305,o),
(284,279,c),
(258,271,o),
(231,271,o),
(206,271,c)
);
},
{
attr = {
strokeWidth = 1;
};
closed = 1;
nodes = (
(258,271,o),
(459,383,o),
(512,399,c),
(412,461,l),
(378,435,o),
(352,408,o),
(343,392,c),
(309,339,o),
(318,305,o),
(284,279,c)
);
}
);
width = 600;
},
{
layerId = m002;
shapes = (
{
closed = 1;
nodes = (
(249,800,l),
(128,800,l),
(64,726,l),
(171,726,l)
);
},
{
closed = 1;
nodes = (
(162,726,l),
(162,4,l),
(258,4,l),
(249,800,l)
);
},
{
closed = 1;
nodes = (
(352,287,l),
(378,277,o),
(412,245,o),
(438,220,c),
(456,185,o),
(456,167,o),
(472,133,c),
(490,116,o),
(516,91,o),
(568,73,c),
(458,-1,l),
(423,33,o),
(396,82,o),
(387,107,c),
(352,167,o),
(361,220,o),
(327,245,c),
(300,267,o),
(240,277,o),
(209,277,c)
);
},
{
attr = {
strokeWidth = 1;
};
closed = 1;
nodes = (
(381,276,o),
(412,245,o),
(438,220,c),
(456,185,o),
(456,167,o),
(472,133,c),
(490,116,o),
(516,91,o),
(568,73,c),
(458,-1,l),
(423,33,o),
(396,82,o),
(387,107,c),
(352,167,o),
(361,220,o),
(327,245,c),
(300,267,o),
(242,277,o),
(209,277,c),
(355,286,l)
);
},
{
closed = 1;
nodes = (
(304,283,l),
(341,295,o),
(369,287,o),
(396,319,c),
(412,353,o),
(412,373,o),
(430,395,c),
(447,416,o),
(459,416,o),
(512,436,c),
(412,513,l),
(378,480,o),
(352,447,o),
(343,427,c),
(309,361,o),
(318,319,o),
(284,287,c),
(258,277,o),
(231,277,o),
(206,277,c)
);
},
{
attr = {
strokeWidth = 1;
};
closed = 1;
nodes = (
(258,277,o),
(459,416,o),
(512,436,c),
(412,513,l),
(378,480,o),
(352,447,o),
(343,427,c),
(309,361,o),
(318,319,o),
(284,287,c)
);
}
);
width = 600;
}
);
unicode = 107;
},
{
glyphname = l;
lastChange = "2024-05-10 16:48:40 +0000";
layers = (
{
layerId = m01;
shapes = (
{
closed = 1;
nodes = (
(336,704,l),
(250,600,l),
(250,0,l),
(336,65,l)
);
}
);
width = 600;
},
{
layerId = m002;
shapes = (
{
closed = 1;
nodes = (
(336,792,l),
(250,600,l),
(250,0,l),
(336,65,l)
);
}
);
width = 600;
}
);
unicode = 108;
},
{
glyphname = m;
lastChange = "2024-05-10 16:48:46 +0000";
layers = (
{
layerId = m01;
shapes = (
{
closed = 1;
nodes = (
(41,509,l),
(-57,455,l),
(-57,1,l),
(41,1,l)
);
},
{
closed = 1;
nodes = (
(249,267,l),
(249,1,l),
(348,1,l),
(347,272,l)
);
},
{
closed = 1;
nodes = (
(41,434,l),
(336,604,o),
(364,388,o),
(347,272,c),
(249,267,l),
(249,416,o),
(238,425,o),
(41,385,c)
);
},
{
closed = 1;
nodes = (
(546,267,l),
(642,267,l),
(644,1,l),
(546,1,l)
);
},
{
closed = 1;
nodes = (
(327,434,l),
(624,604,o),
(642,383,o),
(642,267,c),
(546,267,l),
(546,416,o),
(524,425,o),
(327,385,c)
);
}
);
width = 600;
},
{
layerId = m002;
shapes = (
{
closed = 1;
nodes = (
(41,651,l),
(-57,536,l),
(-57,1,l),
(41,1,l)
);
},
{
closed = 1;
nodes = (
(249,267,l),
(249,1,l),
(348,1,l),
(347,272,l)
);
},
{
closed = 1;
nodes = (
(41,491,l),
(336,853,o),
(364,394,o),
(347,272,c),
(249,267,l),
(249,453,o),
(238,472,o),
(41,387,c)
);
},
{
closed = 1;
nodes = (
(546,267,l),
(642,267,l),
(644,1,l),
(546,1,l)
);
},
{
closed = 1;
nodes = (
(327,491,l),
(624,853,o),
(642,383,o),
(642,267,c),
(546,267,l),
(546,453,o),
(524,472,o),
(327,387,c)
);
}
);
width = 600;
}
);
unicode = 109;
},
{
glyphname = n;
lastChange = "2024-05-10 16:48:51 +0000";
layers = (
{
layerId = m01;
shapes = (
{
closed = 1;
nodes = (
(207,504,l),
(108,455,l),
(108,3,l),
(216,3,l)
);
},
{
closed = 1;
nodes = (
(423,336,l),
(423,3,l),
(520,3,l),
(520,376,l)
);
},
{
closed = 1;
nodes = (
(207,435,l),
(501,566,o),
(526,463,o),
(520,376,c),
(423,336,l),
(429,450,o),
(276,384,o),
(207,376,c)
);
}
);
width = 600;
},
{
layerId = m002;
shapes = (
{
closed = 1;
nodes = (
(207,640,l),
(108,552,l),
(108,3,l),
(216,3,l)
);
},
{
closed = 1;
nodes = (
(423,336,l),
(423,3,l),
(520,3,l),
(520,408,l)
);
},
{
closed = 1;
nodes = (
(207,515,l),
(501,753,o),
(526,566,o),
(520,408,c),
(423,336,l),
(429,542,o),
(276,423,o),
(207,408,c)
);
}
);
width = 600;
}
);
unicode = 110;
},
{
glyphname = o;
lastChange = "2024-05-10 16:48:56 +0000";
layers = (
{
layerId = m01;
shapes = (
{
closed = 1;
nodes = (
(414,422,l),
(414,59,l),
(508,105,l),
(508,439,l)
);
},
{
closed = 1;
nodes = (
(367,50,o),
(219,78,o),
(211,161,c),
(117,123,l),
(228,-71,o),
(452,12,o),
(489,96,c)
);
},
{
closed = 1;
nodes = (
(132,392,o),
(150,397,o),
(168,407,cs),
(263,460,o),
(398,469,o),
(414,422,c),
(508,439,l),
(367,578,o),
(162,467,o),
(117,384,c)
);
},
{
closed = 1;
nodes = (
(211,161,l),
(117,123,l),
(117,384,l),
(219,431,l)
);
}
);
width = 600;
},
{
layerId = m002;
shapes = (
{
closed = 1;
nodes = (
(414,494,l),
(414,59,l),
(508,105,l),
(508,543,l)
);
},
{
closed = 1;
nodes = (
(367,50,o),
(219,78,o),
(211,161,c),
(117,123,l),
(228,-71,o),
(452,12,o),
(489,96,c)
);
},
{
closed = 1;
nodes = (
(132,407,o),
(150,422,o),
(168,451,cs),
(263,604,o),
(398,630,o),
(414,494,c),
(508,543,l),
(367,946,o),
(162,624,o),
(117,384,c)
);
},
{
closed = 1;
nodes = (
(211,161,l),
(117,123,l),
(117,384,l),
(219,520,l)
);
}
);
width = 600;
}
);
unicode = 111;
},
{
glyphname = p;
lastChange = "2024-05-10 16:49:00 +0000";
layers = (
{
layerId = m01;
shapes = (
{
closed = 1;
nodes = (
(196,432,l),
(117,377,l),
(117,-117,l),
(196,-170,l)
);
},
{
closed = 1;
nodes = (
(316,21,o),
(371,25,o),
(367,134,c),
(447,111,l),
(431,-94,o),
(204,49,o),
(196,65,c)
);
},
{
closed = 1;
nodes = (
(432,331,o),
(390,354,o),
(371,365,cs),
(281,414,o),
(230,363,o),
(196,311,c),
(196,385,l),
(311,483,o),
(423,402,o),
(447,323,c)
);
},
{
closed = 1;
nodes = (
(367,134,l),
(447,111,l),
(447,323,l),
(371,365,l)
);
}
);
width = 600;
},
{
layerId = m002;
shapes = (
{
closed = 1;
nodes = (
(196,636,l),
(117,488,l),
(117,-117,l),
(196,-170,l)
);
},
{
closed = 1;
nodes = (
(316,21,o),
(371,25,o),
(367,134,c),
(447,111,l),
(431,-94,o),
(204,49,o),
(196,65,c)
);
},
{
closed = 1;
nodes = (
(432,365,o),
(390,426,o),
(371,456,cs),
(281,587,o),
(230,451,o),
(196,311,c),
(196,510,l),
(311,772,o),
(423,555,o),
(447,343,c)
);
},
{
closed = 1;
nodes = (
(367,134,l),
(447,111,l),
(447,343,l),
(371,456,l)
);
}
);
width = 600;
}
);
unicode = 112;
},
{
glyphname = q;
lastChange = "2024-05-10 16:49:10 +0000";
layers = (
{
layerId = m01;
shapes = (
{
closed = 1;
nodes = (
(483,-117,l),
(483,377,l),
(404,432,l),
(404,-170,l)
);
},
{
closed = 1;
nodes = (
(396,49,o),
(169,-94,o),
(153,111,c),
(233,134,l),
(229,25,o),
(284,21,o),
(404,65,c)
);
},
{
closed = 1;
nodes = (
(177,402,o),
(289,483,o),
(404,385,c),
(404,311,l),
(370,363,o),
(319,414,o),
(229,365,cs),
(210,354,o),
(168,331,o),
(153,323,c)
);
},
{
closed = 1;
nodes = (
(153,323,l),
(153,111,l),
(233,134,l),
(229,365,l)
);
}
);
width = 600;
},
{
layerId = m002;
shapes = (
{
closed = 1;
nodes = (
(483,-117,l),
(483,488,l),
(404,636,l),
(404,-170,l)
);
},
{
closed = 1;
nodes = (
(396,49,o),
(169,-94,o),
(153,111,c),
(233,134,l),
(229,25,o),
(284,21,o),
(404,65,c)
);
},
{
closed = 1;
nodes = (
(177,555,o),
(289,772,o),
(404,510,c),
(404,311,l),
(370,451,o),
(319,587,o),
(229,456,cs),
(210,426,o),
(168,365,o),
(153,343,c)
);
},
{
closed = 1;
nodes = (
(153,343,l),
(153,111,l),
(233,134,l),
(229,456,l)
);
}
);
width = 600;
}
);
unicode = 113;
},
{
glyphname = r;
lastChange = "2024-05-10 16:49:16 +0000";
layers = (
{
layerId = m01;
shapes = (
{
closed = 1;
nodes = (
(252,501,l),
(155,461,l),
(155,3,l),
(255,2,l)
);
},
{
closed = 1;
nodes = (
(431,394,l),
(357,474,o),
(290,413,o),
(252,383,c),
(252,433,l),
(408,530,o),
(507,501,o),
(517,441,c)
);
}
);
width = 600;
},
{
layerId = m002;
shapes = (
{
closed = 1;
nodes = (
(252,667,l),
(155,571,l),
(155,3,l),
(255,2,l)
);
},
{
closed = 1;
nodes = (
(431,409,l),
(357,602,o),
(290,455,o),
(252,383,c),
(252,503,l),
(408,737,o),
(507,667,o),
(517,523,c)
);
}
);
width = 600;
}
);
unicode = 114;
},
{
glyphname = s;
lastChange = "2024-05-10 16:49:21 +0000";
layers = (
{
layerId = m01;
shapes = (
{
closed = 1;
nodes = (
(309,327,l),
(329,327,o),
(396,287,o),
(462,238,c),
(471,227,o),
(491,198,o),
(491,150,c),
(491,90,o),
(451,52,o),
(442,41,c),
(393,3,o),
(334,3,o),
(314,3,c),
(236,3,o),
(167,72,o),
(129,150,c),
(236,139,l),
(246,120,o),
(282,100,o),
(321,71,c),
(340,62,o),
(361,51,o),
(390,62,c),
(410,71,o),
(419,91,o),
(419,91,c),
(428,120,o),
(412,140,o),
(364,169,c),
(353,179,o),
(342,181,o),
(283,210,c),
(225,240,o),
(172,267,o),
(163,318,c)
);
},
{
closed = 1;
nodes = (
(324,198,l),
(314,198,o),
(243,220,o),
(182,274,c),
(182,274,o),
(158,305,o),
(158,354,c),
(158,414,o),
(198,443,o),
(207,452,c),
(256,501,o),
(314,501,o),
(334,501,c),
(413,491,o),
(471,443,o),
(509,365,c),
(431,296,l),
(422,305,o),
(393,383,o),
(353,423,c),
(319,454,o),
(299,465,o),
(261,454,c),
(241,445,o),
(241,425,o),
(241,416,c),
(241,396,o),
(261,367,o),
(270,358,c),
(280,347,o),
(290,338,o),
(364,296,c),
(422,267,o),
(431,267,o),
(442,247,c),
(451,247,o),
(475,227,o),
(486,188,c)
);
}
);
width = 600;
},
{
layerId = m002;
shapes = (
{
closed = 1;
nodes = (
(309,425,l),
(329,425,o),
(396,351,o),
(462,261,c),
(471,241,o),
(491,198,o),
(491,150,c),
(491,90,o),
(451,52,o),
(442,41,c),
(393,3,o),
(334,3,o),
(314,3,c),
(236,3,o),
(167,72,o),
(129,150,c),
(236,139,l),
(246,120,o),
(282,100,o),
(321,71,c),
(340,62,o),
(361,51,o),
(390,62,c),
(410,71,o),
(419,91,o),
(419,91,c),
(428,120,o),
(412,140,o),
(364,169,c),
(353,179,o),
(342,181,o),
(283,210,c),
(225,265,o),
(172,315,o),
(163,408,c)
);
},
{
closed = 1;
nodes = (
(324,198,l),
(314,198,o),
(243,228,o),
(182,327,c),
(182,327,o),
(158,384,o),
(158,474,c),
(158,584,o),
(198,637,o),
(207,654,c),
(256,744,o),
(314,744,o),
(334,744,c),
(413,726,o),
(471,637,o),
(509,494,c),
(431,368,l),
(422,384,o),
(393,527,o),
(353,601,c),
(319,658,o),
(299,678,o),
(261,658,c),
(241,641,o),
(241,604,o),
(241,588,c),
(241,551,o),
(261,498,o),
(270,482,c),
(280,461,o),
(290,445,o),
(364,368,c),
(422,315,o),
(431,315,o),
(442,278,c),
(451,278,o),
(475,241,o),
(486,188,c)
);
}
);
width = 600;
}
);
unicode = 115;
},
{
glyphname = t;
lastChange = "2024-05-10 16:49:25 +0000";
layers = (
{
layerId = m01;
shapes = (
{
closed = 1;
nodes = (
(299,601,l),
(213,700,l),
(213,88,l),
(299,25,l)
);
},
{
closed = 1;
nodes = (
(213,360,l),
(174,348,o),
(122,243,o),
(108,222,c),
(125,291,o),
(136,411,o),
(213,411,c)
);
},
{
closed = 1;
nodes = (
(428,362,l),
(397,411,l),
(241,411,l),
(194,460,o),
(224,378,o),
(237,360,c)
);
},
{
closed = 1;
nodes = (
(231,22,o),
(329,-43,o),
(472,35,c),
(406,65,l),
(325,-5,o),
(271,59,o),
(213,88,c)
);
},
{
attr = {
strokeWidth = 0.75;
};
closed = 0;
nodes = (
(237,311,l),
(237,360,l)
);
}
);
width = 600;
},
{
layerId = m002;
shapes = (
{
closed = 1;
nodes = (
(299,680,l),
(213,800,l),
(213,88,l),
(299,25,l)
);
},
{
closed = 1;
nodes = (
(213,389,l),
(174,374,o),
(122,247,o),
(108,222,c),
(125,305,o),
(136,451,o),
(213,451,c)
);
},
{
closed = 1;
nodes = (
(428,391,l),
(397,451,l),
(241,451,l),
(194,510,o),
(224,411,o),
(237,389,c)
);
},
{
closed = 1;
nodes = (
(231,22,o),
(329,-43,o),
(472,35,c),
(406,65,l),
(325,-5,o),
(271,59,o),
(213,88,c)
);
},
{
attr = {
strokeWidth = 0.75;
};
closed = 0;
nodes = (
(237,330,l),
(237,389,l)
);
}
);
width = 600;
}
);
unicode = 116;
},
{
glyphname = u;
lastChange = "2024-05-10 16:50:00 +0000";
layers = (
{
layerId = m01;
shapes = (
{
closed = 1;
nodes = (
(424,514,l),
(435,5,l),
(535,46,l),
(535,514,l)
);
},
{
closed = 1;
nodes = (
(114,514,l),
(114,136,l),
(215,165,l),
(215,514,l)
);
},
{
closed = 1;
nodes = (
(435,74,l),
(136,-88,o),
(108,56,o),
(114,136,c),
(215,165,l),
(220,3,o),
(290,79,o),
(432,120,c)
);
}
);
width = 600;
},
{
layerId = m002;
shapes = (
{
closed = 1;
nodes = (
(424,700,l),
(435,5,l),
(535,46,l),
(535,700,l)
);
},
{
closed = 1;
nodes = (
(114,700,l),
(114,136,l),
(215,165,l),
(215,700,l)
);
},
{
closed = 1;
nodes = (
(435,74,l),
(136,-88,o),
(108,56,o),
(114,136,c),
(215,165,l),
(220,3,o),
(290,79,o),
(432,120,c)
);
}
);
width = 600;
}
);
unicode = 117;
},
{
glyphname = v;
lastChange = "2024-05-10 16:50:05 +0000";
layers = (
{
layerId = m01;
shapes = (
{
closed = 1;
nodes = (
(249,0,l),
(370,0,l),
(177,498,l),
(76,519,l)
);
},
{
closed = 1;
nodes = (
(442,500,l),
(279,0,l),
(390,0,l),
(544,519,l)
);
}
);
width = 600;
},
{
layerId = m002;
shapes = (
{
closed = 1;
nodes = (
(249,0,l),
(370,0,l),
(177,498,l),
(76,709,l)
);
},
{
closed = 1;
nodes = (
(442,518,l),
(279,0,l),
(390,0,l),
(544,709,l)
);
}
);
width = 600;
}
);
unicode = 118;
},
{
glyphname = w;
lastChange = "2024-05-10 16:50:13 +0000";
layers = (
{
layerId = m01;
shapes = (
{
closed = 1;
nodes = (
(127,2,l),
(242,2,l),
(71,470,l),
(-35,500,l)
);
},
{
closed = 1;
nodes = (
(157,2,l),
(261,2,l),
(347,337,l),
(309,461,l)
);
},
{
closed = 1;
nodes = (
(376,2,l),
(491,2,l),
(309,470,l),
(214,500,l)
);
},
{
closed = 1;
nodes = (
(557,461,l),
(405,2,l),
(510,2,l),
(653,490,l)
);
}
);
width = 600;
},
{
layerId = m002;
shapes = (
{
closed = 1;
nodes = (
(127,2,l),
(242,2,l),
(71,633,l),
(-35,700,l)
);
},
{
closed = 1;
nodes = (
(157,2,l),
(261,2,l),
(347,337,l),
(309,613,l)
);
},
{
closed = 1;
nodes = (
(376,2,l),
(491,2,l),
(309,633,l),
(214,700,l)
);
},
{
closed = 1;
nodes = (
(557,613,l),
(405,2,l),
(510,2,l),
(653,678,l)
);
}
);
width = 600;
}
);
unicode = 119;
},
{
glyphname = x;
lastChange = "2024-05-10 16:50:17 +0000";
layers = (
{
layerId = m01;
shapes = (
{
closed = 1;
nodes = (
(391,36,l),
(517,7,l),
(227,471,l),
(101,500,l)
);
},
{
closed = 1;
nodes = (
(507,500,l),
(400,471,l),
(314,346,l),
(111,7,l),
(237,36,l)
);
}
);
width = 600;
},
{
layerId = m002;
shapes = (
{
closed = 1;
nodes = (
(391,36,l),
(517,7,l),
(227,655,l),
(101,727,l)
);
},
{
closed = 1;
nodes = (
(507,727,l),
(400,655,l),
(314,346,l),
(111,7,l),
(237,36,l)
);
}
);
width = 600;
}
);
unicode = 120;
},
{
glyphname = y;
lastChange = "2024-05-10 16:50:21 +0000";
layers = (
{
layerId = m01;
shapes = (
{
closed = 1;
nodes = (
(83,500,l),
(276,159,l),
(320,258,l),
(176,500,l)
);
},
{
closed = 1;
nodes = (
(514,501,l),
(414,280,o),
(312,58,o),
(212,-173,c),
(171,-183,o),
(156,-190,o),
(116,-200,c),
(217,21,o),
(307,233,o),
(409,454,c)
);
}
);
width = 600;
},
{
layerId = m002;
shapes = (
{
closed = 1;
nodes = (
(83,737,l),
(276,159,l),
(320,327,l),
(176,737,l)
);
},
{
closed = 1;
nodes = (
(514,738,l),
(414,364,o),
(312,58,o),
(212,-173,c),
(171,-183,o),
(156,-190,o),
(116,-200,c),
(217,21,o),
(307,284,o),
(409,659,c)
);
}
);
width = 600;
}
);
unicode = 121;
},
{
glyphname = z;
lastChange = "2024-05-10 16:50:26 +0000";
layers = (
{
layerId = m01;
shapes = (
{
closed = 1;
nodes = (
(93,14,l),
(131,82,o),
(180,159,o),
(228,237,c),
(268,307,o),
(316,374,o),
(356,442,c),
(491,452,l),
(394,307,o),
(306,159,o),
(218,14,c)
);
},
{
closed = 1;
nodes = (
(451,412,l),
(346,472,o),
(208,412,o),
(101,412,c),
(83,452,o),
(83,462,o),
(53,500,c),
(198,500,o),
(374,500,o),
(521,500,c)
);
},
{
closed = 1;
nodes = (
(451,4,l),
(326,4,o),
(208,4,o),
(83,4,c),
(131,52,o),
(121,62,o),
(180,92,c),
(296,44,o),
(374,92,o),
(549,92,c)
);
}
);
width = 600;
},
{
layerId = m002;
shapes = (
{
closed = 1;
nodes = (
(93,14,l),
(131,82,o),
(180,159,o),
(228,237,c),
(268,377,o),
(316,511,o),
(356,646,c),
(491,666,l),
(394,377,o),
(306,159,o),
(218,14,c)
);
},
{
closed = 1;
nodes = (
(451,586,l),
(346,706,o),
(208,586,o),
(101,586,c),
(83,666,o),
(83,686,o),
(53,762,c),
(198,762,o),
(374,762,o),
(521,762,c)
);
},
{
closed = 1;
nodes = (
(451,4,l),
(326,4,o),
(208,4,o),
(83,4,c),
(131,52,o),
(121,62,o),
(180,92,c),
(296,44,o),
(374,92,o),
(549,92,c)
);
}
);
width = 600;
}
);
unicode = 122;
},
{
glyphname = one;
lastChange = "2024-05-10 16:50:30 +0000";
layers = (
{
layerId = m01;
shapes = (
{
closed = 1;
nodes = (
(368,687,l),
(267,577,l),
(267,2,l),
(360,2,l)
);
}
);
width = 600;
},
{
layerId = m002;
shapes = (
{
closed = 1;
nodes = (
(368,789,l),
(267,577,l),
(267,2,l),
(360,2,l)
);
}
);
width = 600;
}
);
unicode = 49;
},
{
glyphname = two;
lastChange = "2024-05-10 16:50:33 +0000";
layers = (
{
layerId = m01;
shapes = (
{
closed = 1;
nodes = (
(435,509,l),
(438,518,o),
(441,523,o),
(444,565,c),
(444,630,o),
(409,658,o),
(400,668,c),
(353,715,o),
(267,702,o),
(248,693,c),
(201,671,o),
(187,654,o),
(145,593,c),
(201,500,l),
(210,519,o),
(211,557,o),
(248,599,c),
(266,617,o),
(289,634,o),
(317,634,c),
(339,630,o),
(351,602,o),
(351,602,c)
);
},
{
closed = 1;
nodes = (
(351,602,l),
(435,509,l),
(210,31,l),
(98,22,l)
);
},
{
closed = 1;
nodes = (
(416,3,l),
(294,3,o),
(191,3,o),
(79,3,c),
(126,50,o),
(98,56,o),
(136,80,c),
(249,42,o),
(341,97,o),
(500,97,c)
);
}
);
width = 600;
},
{
layerId = m002;
shapes = (
{
closed = 1;
nodes = (
(435,513,l),
(438,527,o),
(441,534,o),
(444,596,c),
(444,692,o),
(409,733,o),
(400,748,c),
(353,817,o),
(267,798,o),
(248,784,c),
(201,752,o),
(187,727,o),
(145,637,c),
(201,500,l),
(210,528,o),
(211,584,o),
(248,646,c),
(266,672,o),
(289,697,o),
(317,697,c),
(339,692,o),
(351,650,o),
(351,650,c)
);
},
{
closed = 1;
nodes = (
(351,650,l),
(435,513,l),
(210,31,l),
(98,22,l)
);
},
{
closed = 1;
nodes = (
(416,3,l),
(294,3,o),
(191,3,o),
(79,3,c),
(126,50,o),
(98,56,o),
(136,80,c),
(249,42,o),
(341,97,o),
(500,97,c)
);
}
);
width = 600;
}
);
unicode = 50;
},
{
glyphname = three;
lastChange = "2024-05-10 16:50:39 +0000";
layers = (
{
layerId = m01;
shapes = (
{
closed = 1;
nodes = (
(249,38,o),
(360,29,o),
(368,135,c),
(432,100,l),
(368,-105,o),
(158,64,o),
(150,82,c)
);
},
{
closed = 1;
nodes = (
(281,378,o),
(244,345,o),
(208,304,c),
(168,367,l),
(308,428,o),
(317,407,o),
(368,401,c)
);
},
{
closed = 1;
nodes = (
(368,135,l),
(432,100,l),
(426,344,l),
(368,401,l)
);
},
{
closed = 1;
nodes = (
(238,395,l),
(246,401,o),
(328,412,o),
(386,456,c),
(396,465,o),
(414,491,o),
(414,546,c),
(414,598,o),
(378,643,o),
(368,652,c),
(332,697,o),
(257,697,o),
(238,697,c),
(183,687,o),
(84,632,o),
(110,518,c),
(195,574,l),
(210,705,o),
(394,609,o),
(323,518,c),
(314,510,o),
(314,510,o),
(277,483,c),
(231,447,o),
(213,433,o),
(204,425,c),
(195,416,o),
(177,402,o),
(168,367,c)
);
}
);
width = 600;
},
{
layerId = m002;
shapes = (
{
closed = 1;
nodes = (
(249,38,o),
(360,29,o),
(368,135,c),
(432,100,l),
(368,-105,o),
(158,64,o),
(150,82,c)
);
},
{
closed = 1;
nodes = (
(281,419,o),
(244,380,o),
(208,332,c),
(168,406,l),
(308,477,o),
(317,452,o),
(368,445,c)
);
},
{
closed = 1;
nodes = (
(368,135,l),
(432,100,l),
(426,379,l),
(368,445,l)
);
},
{
closed = 1;
nodes = (
(238,438,l),
(246,445,o),
(328,458,o),
(386,510,c),
(396,520,o),
(414,550,o),
(414,615,c),
(414,675,o),
(378,728,o),
(368,738,c),
(332,791,o),
(257,791,o),
(238,791,c),
(183,779,o),
(84,715,o),
(110,582,c),
(195,647,l),
(210,800,o),
(394,688,o),
(323,582,c),
(314,573,o),
(314,573,o),
(277,541,c),
(231,499,o),
(213,483,o),
(204,473,c),
(195,463,o),
(177,447,o),
(168,406,c)
);
}
);
width = 600;
}
);
unicode = 51;
},
{
glyphname = four;
lastChange = "2024-05-10 16:50:43 +0000";
layers = (
{
layerId = m01;
shapes = (
{
closed = 1;
nodes = (
(360,704,l),
(279,663,l),
(86,393,l),
(141,366,l)
);
},
{
closed = 1;
nodes = (
(360,412,l),
(360,403,o),
(360,403,o),
(360,403,c)
);
},
{
closed = 1;
nodes = (
(359,329,l),
(433,375,o),
(450,459,o),
(441,514,c),
(393,467,l),
(393,438,o),
(384,421,o),
(359,393,c)
);
},
{
closed = 1;
nodes = (
(296,375,l),
(253,331,o),
(212,336,o),
(86,393,c),
(123,338,l),
(205,311,o),
(242,305,o),
(296,319,c)
);
},
{
closed = 1;
nodes = (
(360,348,l),
(360,101,l),
(296,0,l),
(296,606,l),
(360,704,l)
);
}
);
width = 600;
},
{
layerId = m002;
shapes = (
{
closed = 1;
nodes = (
(360,800,l),
(279,749,l),
(86,414,l),
(141,381,l)
);
},
{
closed = 1;
nodes = (
(360,438,l),
(360,427,o),
(360,427,o),
(360,427,c)
);
},
{
closed = 1;
nodes = (
(359,335,l),
(433,392,o),
(450,496,o),
(441,564,c),
(393,506,l),
(393,470,o),
(384,449,o),
(359,414,c)
);
},
{
closed = 1;
nodes = (
(296,392,l),
(253,337,o),
(212,343,o),
(86,414,c),
(123,346,l),
(205,312,o),
(242,305,o),
(296,322,c)
);
},
{
closed = 1;
nodes = (
(360,358,l),
(360,101,l),
(296,0,l),
(296,678,l),
(360,800,l)
);
}
);
width = 600;
}
);
unicode = 52;
},
{
glyphname = five;
lastChange = "2024-05-10 16:50:48 +0000";
layers = (
{
layerId = m01;
shapes = (
{
closed = 1;
nodes = (
(189,619,l),
(246,706,o),
(361,628,o),
(433,628,c),
(451,656,o),
(460,673,o),
(478,700,c),
(370,700,o),
(242,700,o),
(134,700,c)
);
},
{
closed = 1;
nodes = (
(134,429,l),
(206,481,l),
(207,700,l),
(134,700,l)
);
},
{
closed = 1;
nodes = (
(233,58,o),
(379,56,o),
(387,157,c),
(460,131,l),
(379,-105,o),
(143,85,o),
(125,113,c)
);
},
{
closed = 1;
nodes = (
(342,498,o),
(225,447,o),
(207,375,c),
(134,429,l),
(155,445,o),
(170,456,o),
(184,466,cs),
(340,577,o),
(447,466,o),
(460,384,c)
);
},
{
closed = 1;
nodes = (
(387,157,l),
(460,131,l),
(460,384,l),
(387,436,l)
);
}
);
width = 600;
},
{
layerId = m002;
shapes = (
{
closed = 1;
nodes = (
(189,688,l),
(246,800,o),
(361,700,o),
(433,700,c),
(451,736,o),
(460,758,o),
(478,792,c),
(370,792,o),
(242,792,o),
(134,792,c)
);
},
{
closed = 1;
nodes = (
(134,444,l),
(206,511,l),
(207,792,l),
(134,792,l)
);
},
{
closed = 1;
nodes = (
(233,58,o),
(379,56,o),
(387,157,c),
(460,131,l),
(379,-105,o),
(143,85,o),
(125,113,c)
);
},
{
closed = 1;
nodes = (
(342,533,o),
(225,467,o),
(207,375,c),
(134,444,l),
(155,465,o),
(170,479,o),
(184,492,cs),
(340,634,o),
(447,492,o),
(460,387,c)
);
},
{
closed = 1;
nodes = (
(387,157,l),
(460,131,l),
(460,387,l),
(387,453,l)
);
}
);
width = 600;
}
);
unicode = 53;
},
{
glyphname = six;
lastChange = "2024-05-10 16:50:54 +0000";
layers = (
{
layerId = m01;
shapes = (
{
closed = 1;
nodes = (
(163,607,l),
(154,71,l),
(154,61,l),
(234,98,l),
(234,639,l)
);
},
{
closed = 1;
nodes = (
(269,431,o),
(440,483,o),
(457,348,c),
(387,312,l),
(383,367,o),
(324,436,o),
(234,391,c)
);
},
{
closed = 1;
nodes = (
(431,44,o),
(261,-82,o),
(154,61,c),
(234,98,l),
(251,35,o),
(343,50,o),
(440,115,c)
);
},
{
closed = 1;
nodes = (
(457,124,l),
(457,348,l),
(387,312,l),
(383,82,l)
);
},
{
closed = 1;
nodes = (
(228,688,o),
(401,794,o),
(447,543,c),
(380,561,l),
(353,700,o),
(247,653,o),
(163,607,c)
);
}
);
width = 600;
},
{
layerId = m002;
shapes = (
{
closed = 1;
nodes = (
(163,692,l),
(154,71,l),
(154,61,l),
(234,98,l),
(234,733,l)
);
},
{
closed = 1;
nodes = (
(269,465,o),
(440,532,o),
(457,358,c),
(387,312,l),
(383,383,o),
(324,472,o),
(234,414,c)
);
},
{
closed = 1;
nodes = (
(431,44,o),
(261,-82,o),
(154,61,c),
(234,98,l),
(251,35,o),
(343,50,o),
(440,115,c)
);
},
{
closed = 1;
nodes = (
(457,124,l),
(457,358,l),
(387,312,l),
(383,82,l)
);
},
{
closed = 1;
nodes = (
(228,796,o),
(401,932,o),
(447,609,c),
(380,632,l),
(353,811,o),
(247,751,o),
(163,692,c)
);
}
);
width = 600;
}
);
unicode = 54;
},
{
glyphname = seven;
lastChange = "2024-05-10 16:50:58 +0000";
layers = (
{
layerId = m01;
shapes = (
{
closed = 1;
nodes = (
(435,629,l),
(254,0,l),
(344,0,l),
(542,700,l),
(542,700,l)
);
},
{
closed = 1;
nodes = (
(542,700,l),
(416,700,o),
(209,700,o),
(84,700,c),
(102,674,o),
(111,656,o),
(129,629,c),
(228,629,o),
(344,674,o),
(443,620,c)
);
}
);
width = 600;
},
{
layerId = m002;
shapes = (
{
closed = 1;
nodes = (
(435,640,l),
(254,0,l),
(344,0,l),
(542,800,l),
(542,800,l)
);
},
{
closed = 1;
nodes = (
(542,800,l),
(416,800,o),
(209,800,o),
(84,800,c),
(102,742,o),
(111,701,o),
(129,640,c),
(228,640,o),
(344,742,o),
(443,620,c)
);
}
);
width = 600;
}
);
unicode = 55;
},
{
glyphname = eight;
lastChange = "2024-05-10 16:51:05 +0000";
layers = (
{
layerId = m01;
shapes = (
{
closed = 1;
nodes = (
(388,630,l),
(388,382,l),
(458,446,l),
(458,647,l)
);
},
{
closed = 1;
nodes = (
(343,360,o),
(275,329,o),
(211,400,c),
(140,374,l),
(271,272,o),
(368,329,o),
(388,382,c)
);
},
{
closed = 1;
nodes = (
(299,717,o),
(380,665,o),
(388,630,c),
(458,647,l),
(387,733,o),
(262,721,o),
(211,656,c)
);
},
{
closed = 1;
nodes = (
(211,400,l),
(140,374,l),
(140,594,l),
(211,656,l)
);
},
{
closed = 1;
nodes = (
(458,74,l),
(388,38,l),
(388,382,l),
(458,339,l)
);
},
{
closed = 1;
nodes = (
(282,19,o),
(211,65,o),
(202,126,c),
(140,100,l),
(237,-59,o),
(362,9,o),
(388,38,c)
);
},
{
closed = 1;
nodes = (
(202,126,l),
(140,100,l),
(140,292,l),
(202,336,l)
);
}
);
width = 600;
},
{
layerId = m002;
shapes = (
{
closed = 1;
nodes = (
(388,707,l),
(388,402,l),
(458,481,l),
(458,727,l)
);
},
{
closed = 1;
nodes = (
(343,375,o),
(275,337,o),
(211,424,c),
(140,393,l),
(271,267,o),
(368,337,o),
(388,402,c)
);
},
{
closed = 1;
nodes = (
(299,813,o),
(380,750,o),
(388,707,c),
(458,727,l),
(387,833,o),
(262,818,o),
(211,738,c)
);
},
{
closed = 1;
nodes = (
(211,424,l),
(140,393,l),
(140,662,l),
(211,738,l)
);
},
{
closed = 1;
nodes = (
(458,74,l),
(388,38,l),
(388,402,l),
(458,350,l)
);
},
{
closed = 1;
nodes = (
(282,19,o),
(211,65,o),
(202,126,c),
(140,100,l),
(237,-59,o),
(362,9,o),
(388,38,c)
);
},
{
closed = 1;
nodes = (
(202,126,l),
(140,100,l),
(140,292,l),
(202,346,l)
);
}
);
width = 600;
}
);
unicode = 56;
},
{
glyphname = nine;
lastChange = "2024-05-10 16:51:09 +0000";
layers = (
{
layerId = m01;
shapes = (
{
closed = 1;
nodes = (
(459,92,l),
(468,619,l),
(468,629,l),
(388,593,l),
(388,60,l)
);
},
{
closed = 1;
nodes = (
(353,265,o),
(182,214,o),
(165,347,c),
(235,382,l),
(239,328,o),
(298,260,o),
(388,304,c)
);
},
{
closed = 1;
nodes = (
(203,669,o),
(459,784,o),
(468,629,c),
(388,593,l),
(380,675,o),
(262,631,o),
(165,567,c)
);
},
{
closed = 1;
nodes = (
(165,567,l),
(165,347,l),
(235,382,l),
(239,609,l)
);
},
{
closed = 1;
nodes = (
(394,12,o),
(221,-93,o),
(175,155,c),
(242,137,l),
(269,0,o),
(375,46,o),
(459,92,c)
);
}
);
width = 600;
},
{
layerId = m002;
shapes = (
{
closed = 1;
nodes = (
(459,92,l),
(468,699,l),
(468,712,l),
(388,664,l),
(388,60,l)
);
},
{
closed = 1;
nodes = (
(353,265,o),
(182,214,o),
(165,347,c),
(235,382,l),
(239,328,o),
(298,260,o),
(388,304,c)
);
},
{
closed = 1;
nodes = (
(203,766,o),
(459,919,o),
(468,712,c),
(388,664,l),
(380,774,o),
(262,715,o),
(165,629,c)
);
},
{
closed = 1;
nodes = (
(165,629,l),
(165,347,l),
(235,382,l),
(239,685,l)
);
},
{
closed = 1;
nodes = (
(394,12,o),
(221,-93,o),
(175,155,c),
(242,137,l),
(269,0,o),
(375,46,o),
(459,92,c)
);
}
);
width = 600;
}
);
unicode = 57;
},
{
glyphname = zero;
lastChange = "2024-05-10 16:51:13 +0000";
layers = (
{
layerId = m01;
shapes = (
{
closed = 1;
nodes = (
(436,584,l),
(436,112,l),
(509,162,l),
(510,600,l)
);
},
{
closed = 1;
nodes = (
(358,39,o),
(207,26,o),
(193,204,c),
(111,157,l),
(229,-88,o),
(400,3,o),
(436,112,c)
);
},
{
closed = 1;
nodes = (
(319,701,o),
(420,636,o),
(436,556,c),
(510,600,l),
(338,771,o),
(256,679,o),
(201,619,c)
);
},
{
closed = 1;
nodes = (
(193,204,l),
(111,157,l),
(111,510,l),
(201,619,l)
);
}
);
width = 600;
},
{
layerId = m002;
shapes = (
{
closed = 1;
nodes = (
(436,616,l),
(436,112,l),
(509,162,l),
(510,639,l)
);
},
{
closed = 1;
nodes = (
(358,39,o),
(207,26,o),
(193,204,c),
(111,157,l),
(229,-88,o),
(400,3,o),
(436,112,c)
);
},
{
closed = 1;
nodes = (
(319,783,o),
(420,690,o),
(436,576,c),
(510,639,l),
(338,883,o),
(256,752,o),
(201,666,c)
);
},
{
closed = 1;
nodes = (
(193,204,l),
(111,157,l),
(111,510,l),
(201,666,l)
);
}
);
width = 600;
}
);
unicode = 48;
},
